<?xml version="1.0" standalone="no"?>
<!DOCTYPE svg PUBLIC "-//W3C//DTD SVG 20010904//EN"
 "http://www.w3.org/TR/2001/REC-SVG-20010904/DTD/svg10.dtd">
<svg version="1.0" xmlns="http://www.w3.org/2000/svg"
 width="2816.000000pt" height="1536.000000pt" viewBox="0 0 2816.000000 1536.000000"
 preserveAspectRatio="xMidYMid meet">

<g transform="translate(0.000000,1536.000000) scale(0.100000,-0.100000)"
fill="#000000" stroke="none">
<path d="M0 7680 l0 -7680 14080 0 14080 0 0 7680 0 7680 -14080 0 -14080 0 0
-7680z m11665 4145 c157 -75 252 -254 225 -423 -20 -123 -114 -247 -227 -300
-52 -24 -70 -27 -163 -27 -93 0 -111 3 -163 27 -73 35 -155 116 -192 193 -27
55 -30 69 -30 170 0 100 3 115 27 165 51 104 126 172 231 211 80 30 212 22
292 -16z m4473 -712 c394 -351 897 -797 1116 -993 220 -195 623 -553 896 -795
273 -242 633 -562 801 -711 167 -149 471 -418 674 -598 204 -181 370 -332 370
-337 0 -4 -189 -175 -420 -380 -903 -800 -1313 -1165 -1905 -1694 -338 -302
-981 -875 -1428 -1272 l-812 -723 -488 0 -487 1 36 32 c185 162 1448 1289
2054 1832 1113 995 2117 1887 2373 2105 61 52 110 98 109 101 -1 4 -160 145
-352 315 -193 170 -501 442 -685 604 -184 162 -499 441 -700 620 -201 178
-504 448 -675 600 -344 306 -896 795 -1225 1085 -387 341 -940 836 -940 840 0
3 218 5 485 5 l486 0 717 -637z m-5209 72 c19 -42 50 -96 69 -122 l35 -46 -24
-17 c-13 -10 -296 -182 -629 -383 -708 -426 -1415 -853 -1447 -874 -21 -14
-23 -13 -33 11 -24 64 -65 140 -97 182 -32 43 -33 47 -16 59 10 8 198 122 418
255 220 132 686 414 1035 625 349 211 640 384 645 384 6 1 25 -33 44 -74z
m2251 -565 c580 -347 1057 -633 1059 -635 2 -2 -13 -26 -32 -53 -38 -51 -97
-167 -97 -190 0 -8 -3 -12 -7 -10 -27 11 -2087 1249 -2114 1269 l-21 16 44 64
c24 35 54 90 67 122 14 33 29 56 35 54 7 -3 486 -289 1066 -637z m-962 -151
c153 -282 310 -571 348 -641 l69 -128 730 0 730 0 0 -107 c0 -60 2 -124 5
-143 l5 -35 -652 -5 -652 -5 99 -179 c55 -98 97 -182 94 -187 -3 -5 -13 -9
-22 -9 -10 0 -50 -16 -90 -35 -113 -54 -192 -144 -228 -260 -6 -22 -16 -39
-21 -38 -4 1 -157 95 -338 209 -639 401 -643 403 -649 387 -3 -8 -6 -213 -6
-456 l0 -442 -145 0 -145 0 0 454 c0 371 -2 452 -13 448 -7 -3 -226 -138 -486
-301 -260 -163 -476 -296 -479 -296 -4 0 -17 28 -30 63 -44 122 -141 215 -268
257 -35 12 -64 24 -64 27 0 3 43 84 96 180 53 96 94 176 92 178 -1 2 -293 5
-648 7 -566 3 -644 5 -640 18 2 8 5 71 7 140 l3 125 724 3 724 2 170 313 c93
171 247 456 342 632 95 176 176 324 180 328 4 5 35 -10 67 -32 33 -23 87 -53
119 -67 33 -14 60 -27 62 -29 4 -4 -65 -131 -538 -1000 -420 -769 -468 -861
-448 -849 7 4 33 21 58 38 25 17 252 162 505 324 l460 293 5 588 c3 324 7 592
10 595 3 3 37 1 75 -5 43 -6 95 -6 135 0 46 6 67 5 72 -3 4 -6 8 -273 8 -592
l0 -582 68 -42 c37 -24 254 -160 482 -303 228 -143 435 -273 458 -289 24 -16
42 -25 40 -21 -15 35 -105 201 -242 451 -90 163 -190 347 -223 407 -33 61
-151 277 -262 480 -112 204 -220 403 -242 442 l-39 73 72 34 c40 19 96 51 123
69 28 19 51 34 52 33 1 -1 128 -234 281 -517z m-3782 -530 c73 -27 166 -114
205 -191 98 -194 17 -434 -180 -531 -61 -30 -72 -32 -171 -32 -93 0 -112 3
-162 27 -80 37 -152 107 -191 187 -30 61 -32 72 -32 171 0 93 3 112 27 162 50
108 169 205 280 228 60 12 159 3 224 -21z m6432 -1 c69 -26 175 -127 212 -203
22 -44 25 -64 25 -160 0 -99 -3 -116 -27 -168 -36 -76 -114 -157 -185 -192
-70 -34 -203 -46 -280 -25 -168 47 -295 234 -280 412 14 169 149 324 311 358
58 13 157 3 224 -22z m1472 -607 c293 -260 402 -357 1080 -961 256 -229 534
-475 618 -549 83 -74 152 -137 152 -140 0 -4 -100 -95 -222 -203 -244 -214
-434 -383 -1023 -913 -558 -500 -884 -789 -895 -793 -6 -2 -10 145 -10 406 l0
410 108 99 c59 55 271 246 472 424 352 314 397 356 389 362 -2 2 -760 1 -1683
-2 l-1679 -6 -119 -213 c-65 -117 -118 -218 -118 -223 0 -16 -10 -10 -48 27
-35 35 -162 104 -189 104 -7 0 -13 3 -13 6 0 4 43 86 97 183 53 97 114 209
136 250 l40 73 -31 62 c-17 33 -76 144 -132 246 -55 102 -100 191 -100 198 0
6 7 12 16 12 30 0 124 52 173 96 l50 45 42 -83 c75 -149 180 -333 201 -350 19
-17 113 -18 1672 -17 908 0 1659 4 1669 8 19 7 -40 63 -592 555 -135 120 -272
243 -303 272 l-58 53 0 412 c0 389 1 411 17 398 10 -8 137 -119 283 -248z
m-7028 -188 l347 -208 -39 -40 c-44 -46 -87 -121 -96 -171 -3 -19 -11 -34 -16
-34 -7 0 -721 426 -746 446 -2 1 13 24 32 51 19 27 52 84 72 126 l36 77 32
-20 c17 -11 187 -113 378 -227z m4831 167 c15 -36 45 -89 68 -119 22 -29 39
-54 37 -55 -439 -264 -745 -446 -749 -446 -3 0 -11 19 -18 43 -16 54 -54 119
-97 167 l-35 38 273 162 c150 90 320 192 378 226 57 35 107 61 110 56 4 -4 19
-36 33 -72z m301 -308 l65 -32 -46 -78 c-79 -133 -318 -554 -357 -629 l-38
-72 -155 -3 c-85 -2 -157 1 -160 5 -6 9 142 286 274 512 51 88 126 219 166
291 l72 131 57 -47 c32 -25 87 -61 122 -78z m-5583 -84 c213 -385 531 -938
539 -938 3 0 50 78 105 174 l98 174 64 -48 c34 -27 90 -59 123 -71 33 -12 60
-23 60 -25 0 -2 -63 -117 -141 -254 l-140 -250 55 -103 c30 -56 95 -172 145
-257 87 -150 89 -155 68 -164 -95 -39 -131 -60 -170 -95 -24 -23 -48 -41 -53
-41 -5 0 -53 79 -107 175 -54 96 -101 175 -105 175 -4 0 -23 -28 -43 -63 -20
-34 -123 -213 -229 -397 -106 -184 -233 -407 -282 -495 -49 -88 -93 -163 -97
-167 -4 -4 -31 11 -61 33 -30 23 -83 55 -117 72 -35 17 -63 34 -63 38 0 8 158
288 497 882 112 197 209 369 215 382 12 27 -33 111 -489 913 -123 217 -223
397 -222 400 0 4 31 22 67 40 37 18 88 50 112 72 25 22 48 39 52 40 3 0 57
-91 119 -202z m-526 16 c39 3 80 9 93 12 l22 6 0 -1269 0 -1269 -145 0 -145 1
0 1266 0 1266 53 -9 c28 -6 84 -7 122 -4z m6403 2 l112 1 0 -374 0 -373 -140
0 -140 0 0 380 0 380 28 -7 c15 -5 78 -8 140 -7z m-4685 -128 c50 -28 102
-101 112 -158 25 -147 -113 -287 -260 -264 -131 19 -219 158 -181 287 22 71
74 128 143 153 51 19 133 11 186 -18z m3133 -3 c26 -15 58 -46 74 -72 52 -82
51 -169 -3 -251 -39 -57 -98 -91 -172 -99 -137 -14 -262 120 -241 261 12 81
82 160 164 187 46 15 129 3 178 -26z m-2793 -307 c46 -24 533 -322 545 -333
11 -10 7 -21 -24 -61 -20 -27 -52 -82 -71 -122 l-34 -73 -32 19 c-127 77 -553
336 -556 338 -2 2 12 21 31 42 42 47 81 112 98 165 13 41 13 41 43 25z m2257
0 c0 -29 61 -140 100 -182 l41 -44 -302 -182 c-165 -100 -302 -180 -304 -178
-1 2 -13 28 -26 58 -19 47 -67 127 -104 176 -5 7 -7 15 -5 17 25 20 577 347
587 347 7 0 13 -6 13 -12z m-2490 -827 l0 -559 -62 25 c-39 16 -90 27 -140 30
l-78 6 0 502 0 503 88 4 c60 3 101 11 132 25 25 12 48 22 53 22 4 1 7 -250 7
-558z m1479 460 c222 -69 368 -301 332 -525 -32 -191 -170 -342 -358 -391
-152 -40 -344 13 -452 124 -83 85 -141 224 -141 336 0 155 102 332 238 412
107 63 262 81 381 44z m840 -870 c155 -95 289 -175 297 -178 10 -3 1 -21 -32
-61 -52 -63 -67 -90 -84 -149 -7 -24 -15 -43 -17 -43 -13 0 -558 333 -581 355
-11 10 -6 22 26 69 22 31 52 85 67 121 15 35 31 63 34 61 3 -2 134 -81 290
-175z m-1644 113 c14 -31 45 -85 69 -120 l45 -64 -52 -33 c-180 -115 -527
-318 -536 -313 -5 3 -12 19 -16 36 -7 31 -69 131 -104 167 -11 12 -21 26 -21
30 1 8 569 352 583 353 4 0 18 -25 32 -56z m4015 -582 l0 -378 -97 1 c-54 0
-118 -2 -143 -5 l-45 -5 -3 383 -2 382 145 0 145 0 0 -378z m-3280 165 c39 5
73 7 75 4 3 -2 5 -210 5 -462 l0 -458 100 62 c55 34 173 107 262 162 89 55
263 164 387 243 124 79 229 144 234 145 5 1 18 -25 31 -58 52 -141 144 -228
293 -275 l52 -16 -71 -129 c-39 -72 -253 -458 -475 -860 -223 -401 -432 -779
-466 -840 -33 -60 -62 -112 -63 -114 -2 -2 -36 19 -76 46 -40 26 -95 57 -121
67 -37 14 -47 22 -42 35 3 9 46 88 94 176 49 88 180 327 291 530 466 853 603
1101 613 1113 5 7 8 14 6 16 -2 2 -240 -143 -529 -323 l-525 -327 -3 -590 -2
-589 -139 0 -138 0 -7 140 c-3 77 -6 343 -6 591 l0 452 -492 310 c-495 311
-537 336 -543 330 -1 -2 29 -59 67 -128 38 -69 148 -271 245 -450 223 -412
660 -1206 679 -1236 15 -22 14 -23 -61 -58 -43 -20 -99 -51 -125 -70 l-49 -35
-69 127 c-39 70 -234 426 -435 792 -200 366 -408 743 -461 839 -53 96 -96 177
-96 182 0 4 24 15 53 24 142 46 239 140 282 273 10 29 19 52 22 52 5 0 233
-140 558 -343 278 -174 414 -257 420 -257 3 0 5 204 5 453 0 250 2 456 5 458
2 3 36 1 75 -4 44 -6 96 -6 140 0z m-1547 -10 c188 -79 186 -345 -3 -425 -56
-23 -151 -12 -202 24 -100 70 -132 198 -75 297 28 47 73 88 117 106 37 14 126
13 163 -2z m3146 -7 c141 -71 169 -258 55 -367 -61 -59 -139 -77 -225 -52
-131 40 -195 204 -126 322 28 47 73 88 117 106 44 17 137 13 179 -9z m-3644
-312 c10 -45 40 -104 85 -164 l38 -50 -365 -220 c-201 -120 -369 -219 -374
-219 -5 0 -25 33 -44 74 -20 41 -51 95 -70 121 l-34 46 367 221 c202 122 372
222 379 222 6 1 15 -14 18 -31z m4049 -9 c79 -46 580 -349 638 -385 l37 -23
-44 -66 c-24 -37 -53 -92 -66 -123 -12 -31 -23 -58 -25 -60 -2 -3 -733 434
-747 447 -4 5 9 28 29 52 39 47 94 152 94 182 0 24 5 22 84 -24z m-5118 -474
c246 -120 304 -438 115 -638 -63 -67 -127 -102 -214 -118 -210 -39 -414 109
-458 334 -23 113 16 240 100 330 88 94 172 128 307 124 76 -2 100 -7 150 -32z
m6431 -5 c78 -36 151 -109 190 -187 26 -53 28 -67 28 -168 0 -101 -2 -115 -29
-170 -36 -73 -124 -163 -189 -193 -144 -67 -323 -35 -437 78 -151 152 -158
389 -15 548 113 126 299 164 452 92z m-762 -572 c15 -48 55 -128 92 -184 13
-20 7 -25 -149 -121 -90 -55 -271 -164 -403 -243 -132 -79 -346 -207 -475
-285 -509 -307 -1081 -647 -1084 -644 -2 2 -15 30 -30 63 -14 32 -46 87 -71
121 l-45 63 98 60 c101 62 537 322 608 363 70 41 794 475 1119 671 171 103
313 187 316 188 4 0 14 -24 24 -52z m-4195 -563 c547 -329 1019 -612 1047
-629 29 -17 53 -34 53 -39 0 -4 -18 -34 -40 -66 -22 -32 -52 -85 -66 -117 -15
-32 -28 -61 -30 -62 -1 -2 -29 12 -61 31 -76 45 -1896 1140 -1990 1198 -72 43
-72 44 -54 64 25 27 86 140 101 188 9 28 17 38 29 34 9 -2 464 -273 1011 -602z
m1735 -764 c120 -56 202 -166 225 -303 22 -128 -23 -251 -126 -348 -232 -217
-595 -87 -655 233 -20 113 24 251 109 336 121 121 296 153 447 82z m15410
-2709 c63 -175 203 -314 378 -377 34 -13 62 -28 62 -35 0 -7 -28 -22 -62 -35
-176 -63 -315 -202 -378 -378 -13 -34 -28 -62 -35 -62 -7 0 -22 28 -35 62 -63
176 -202 315 -378 378 -34 13 -62 28 -62 35 0 7 28 22 62 35 88 32 165 81 230
146 82 84 119 146 168 287 9 26 28 5 50 -56z"/>
</g>
</svg>
